<svg width="294" height="74" viewBox="0 0 294 74" fill="none" xmlns="http://www.w3.org/2000/svg">
<path d="M13.824 26.92C16.32 26.92 18.48 27.272 20.304 27.976C22.16 28.68 23.84 29.752 25.344 31.192L21.696 35.464C19.424 33.608 16.992 32.68 14.4 32.68C13.024 32.68 11.936 32.968 11.136 33.544C10.336 34.088 9.936 34.888 9.936 35.944C9.936 36.68 10.112 37.288 10.464 37.768C10.816 38.216 11.44 38.648 12.336 39.064C13.232 39.48 14.576 39.976 16.368 40.552C19.76 41.64 22.256 42.984 23.856 44.584C25.456 46.152 26.256 48.392 26.256 51.304C26.256 53.384 25.728 55.224 24.672 56.824C23.616 58.392 22.096 59.624 20.112 60.52C18.128 61.384 15.776 61.816 13.056 61.816C10.336 61.816 7.92 61.384 5.808 60.52C3.728 59.656 1.936 58.504 0.432 57.064L4.416 52.696C5.696 53.784 7.008 54.6 8.352 55.144C9.728 55.688 11.216 55.96 12.816 55.96C14.448 55.96 15.728 55.608 16.656 54.904C17.616 54.168 18.096 53.16 18.096 51.88C18.096 51.048 17.92 50.36 17.568 49.816C17.216 49.24 16.608 48.728 15.744 48.28C14.88 47.832 13.632 47.352 12 46.84C8.32 45.72 5.696 44.344 4.128 42.712C2.592 41.08 1.824 39.016 1.824 36.52C1.824 34.6 2.336 32.92 3.36 31.48C4.384 30.008 5.808 28.888 7.632 28.12C9.456 27.32 11.52 26.92 13.824 26.92ZM50.7008 53.608C50.7008 54.568 50.8288 55.272 51.0848 55.72C51.3728 56.168 51.8208 56.504 52.4288 56.728L50.8448 61.672C49.2768 61.544 47.9968 61.208 47.0048 60.664C46.0128 60.088 45.2448 59.192 44.7008 57.976C43.0368 60.536 40.4768 61.816 37.0208 61.816C34.4928 61.816 32.4768 61.08 30.9728 59.608C29.4688 58.136 28.7168 56.216 28.7168 53.848C28.7168 51.064 29.7408 48.936 31.7888 47.464C33.8368 45.992 36.7968 45.256 40.6688 45.256H43.2608V44.152C43.2608 42.648 42.9408 41.624 42.3008 41.08C41.6608 40.504 40.5408 40.216 38.9408 40.216C38.1088 40.216 37.1008 40.344 35.9168 40.6C34.7328 40.824 33.5168 41.144 32.2688 41.56L30.5408 36.568C32.1408 35.96 33.7728 35.496 35.4368 35.176C37.1328 34.856 38.7008 34.696 40.1407 34.696C43.7888 34.696 46.4608 35.448 48.1568 36.952C49.8528 38.456 50.7008 40.712 50.7008 43.72V53.608ZM39.2288 56.392C40.9568 56.392 42.3008 55.576 43.2608 53.944V49.432H41.3888C39.6608 49.432 38.3648 49.736 37.5008 50.344C36.6688 50.952 36.2528 51.896 36.2528 53.176C36.2528 54.2 36.5088 55 37.0208 55.576C37.5648 56.12 38.3008 56.392 39.2288 56.392ZM84.9176 34.696C86.9336 34.696 88.5496 35.384 89.7656 36.76C90.9816 38.104 91.5896 39.976 91.5896 42.376V61H84.0056V43.672C84.0056 41.4 83.2856 40.264 81.8456 40.264C81.0456 40.264 80.3416 40.536 79.7336 41.08C79.1256 41.624 78.5336 42.456 77.9576 43.576V61H70.3736V43.672C70.3736 41.4 69.6536 40.264 68.2136 40.264C67.4456 40.264 66.7416 40.552 66.1016 41.128C65.4936 41.672 64.9016 42.488 64.3256 43.576V61H56.7416V35.512H63.3656L63.8936 38.488C64.8856 37.208 65.9736 36.264 67.1576 35.656C68.3736 35.016 69.7496 34.696 71.2856 34.696C72.7256 34.696 73.9576 35.048 74.9816 35.752C76.0376 36.456 76.8056 37.448 77.2856 38.728C78.3096 37.352 79.4296 36.344 80.6456 35.704C81.8936 35.032 83.3176 34.696 84.9176 34.696ZM118.793 61H112.217L111.881 57.784C110.025 60.472 107.449 61.816 104.153 61.816C101.817 61.816 100.041 61.112 98.8245 59.704C97.6405 58.296 97.0485 56.328 97.0485 53.8V35.512H104.633V52.84C104.633 54.088 104.825 54.968 105.209 55.48C105.625 55.96 106.249 56.2 107.081 56.2C108.681 56.2 110.057 55.208 111.209 53.224V35.512H118.793V61ZM138.581 34.792C139.509 34.792 140.357 34.904 141.125 35.128L139.925 42.472C138.965 42.248 138.197 42.136 137.621 42.136C136.117 42.136 134.965 42.664 134.165 43.72C133.397 44.744 132.789 46.296 132.341 48.376V61H124.757V35.512H131.381L132.005 40.456C132.581 38.696 133.445 37.32 134.597 36.328C135.781 35.304 137.109 34.792 138.581 34.792ZM162.591 53.608C162.591 54.568 162.719 55.272 162.975 55.72C163.263 56.168 163.711 56.504 164.319 56.728L162.735 61.672C161.167 61.544 159.887 61.208 158.895 60.664C157.903 60.088 157.135 59.192 156.591 57.976C154.927 60.536 152.367 61.816 148.911 61.816C146.383 61.816 144.367 61.08 142.863 59.608C141.359 58.136 140.607 56.216 140.607 53.848C140.607 51.064 141.631 48.936 143.679 47.464C145.727 45.992 148.687 45.256 152.559 45.256H155.151V44.152C155.151 42.648 154.831 41.624 154.191 41.08C153.551 40.504 152.431 40.216 150.831 40.216C149.999 40.216 148.991 40.344 147.807 40.6C146.623 40.824 145.407 41.144 144.159 41.56L142.431 36.568C144.031 35.96 145.663 35.496 147.327 35.176C149.023 34.856 150.591 34.696 152.031 34.696C155.679 34.696 158.351 35.448 160.047 36.952C161.743 38.456 162.591 40.712 162.591 43.72V53.608ZM151.119 56.392C152.847 56.392 154.191 55.576 155.151 53.944V49.432H153.279C151.551 49.432 150.255 49.736 149.391 50.344C148.559 50.952 148.143 51.896 148.143 53.176C148.143 54.2 148.399 55 148.911 55.576C149.455 56.12 150.191 56.392 151.119 56.392ZM176.216 35.512V61H168.632V35.512H176.216ZM172.376 22.072C173.688 22.072 174.76 22.488 175.592 23.32C176.456 24.12 176.888 25.144 176.888 26.392C176.888 27.64 176.456 28.68 175.592 29.512C174.76 30.312 173.688 30.712 172.376 30.712C171.064 30.712 169.992 30.312 169.16 29.512C168.328 28.68 167.912 27.64 167.912 26.392C167.912 25.144 168.328 24.12 169.16 23.32C169.992 22.488 171.064 22.072 172.376 22.072ZM191.587 27.736C196.803 27.736 200.979 28.92 204.115 31.288C207.283 33.624 208.867 37.928 208.867 44.2C208.867 50.376 207.331 54.728 204.259 57.256C201.187 59.752 197.203 61 192.307 61H182.323V27.736H191.587ZM190.195 33.448V55.288H192.787C195.379 55.288 197.347 54.488 198.691 52.888C200.035 51.256 200.707 48.36 200.707 44.2C200.707 41.352 200.371 39.144 199.699 37.576C199.027 36.008 198.115 34.936 196.963 34.36C195.811 33.752 194.387 33.448 192.691 33.448H190.195ZM235.669 47.752C235.669 48.808 235.621 49.72 235.525 50.488H219.733C219.989 52.632 220.597 54.136 221.557 55C222.517 55.864 223.845 56.296 225.541 56.296C226.565 56.296 227.557 56.12 228.517 55.768C229.477 55.384 230.517 54.808 231.637 54.04L234.757 58.264C231.781 60.632 228.469 61.816 224.821 61.816C220.693 61.816 217.525 60.6 215.317 58.168C213.109 55.736 212.005 52.472 212.005 48.376C212.005 45.784 212.469 43.464 213.397 41.416C214.325 39.336 215.685 37.704 217.477 36.52C219.269 35.304 221.413 34.696 223.909 34.696C227.589 34.696 230.469 35.848 232.549 38.152C234.629 40.456 235.669 43.656 235.669 47.752ZM228.229 45.592C228.165 41.688 226.789 39.736 224.101 39.736C222.789 39.736 221.765 40.216 221.029 41.176C220.325 42.136 219.893 43.72 219.733 45.928H228.229V45.592ZM261.49 35.512L253.474 61H244.498L236.29 35.512H244.546L249.058 55.24L253.762 35.512H261.49Z" fill="#242424"/>
<g clip-path="url(#clip0_103_5)">
<path d="M281.601 0.195399C281.234 0.324071 281.011 0.43368 280.867 0.557586C279.948 1.36298 277.823 5.08016 275.295 10.3176L274.673 11.6043L274.285 11.6138C274.067 11.6138 273.866 11.6234 273.839 11.6234C273.749 11.6329 273.6 11.895 273.6 12.0475C273.6 12.2286 273.329 12.7671 273.175 12.891C273.106 12.9434 273.01 13.0721 272.952 13.177C272.899 13.2818 272.792 13.4534 272.718 13.5582C272.596 13.7345 272.585 13.7774 272.617 14.1777C272.633 14.4113 272.686 14.8163 272.729 15.0737C272.777 15.331 272.798 15.5788 272.777 15.6217C272.761 15.6646 272.601 15.9315 272.421 16.2174C272.118 16.694 272.081 16.7321 271.905 16.7559C271.539 16.8084 271.332 17.0466 271.432 17.304C271.486 17.447 271.48 17.466 271.326 17.5804C271.13 17.7281 271.034 17.9378 271.071 18.1332C271.087 18.2285 271.034 18.4525 270.901 18.8004C270.742 19.2245 270.62 19.4342 270.269 19.9013C269.509 20.9163 269.01 21.8027 268.872 22.3841C268.728 22.9799 269.281 24.0378 270.269 25.072C270.71 25.5342 271.055 25.7439 271.337 25.7249C271.517 25.7106 271.549 25.7249 271.587 25.8297C271.608 25.8964 271.698 26.1966 271.794 26.4969C272.081 27.4024 272.702 28.9178 273.101 29.6756C273.287 30.0234 273.287 30.0377 273.233 30.3284C273.101 31.0004 273.164 31.9583 273.393 32.7875C273.472 33.0734 273.488 33.1926 273.446 33.2069C273.366 33.2307 273.217 33.5023 273.095 33.8359C273.042 33.9789 272.798 34.4269 272.553 34.8224L272.107 35.5468L271.549 37.8248C271.066 39.7787 270.965 40.1361 270.827 40.341C270.492 40.8319 270.258 41.6134 270.152 42.5856C270.12 42.8763 270.067 43.8533 270.041 44.754C269.987 46.5125 269.982 46.5268 269.701 47.5371C268.824 50.6634 268.176 54.2138 268.245 55.5386C268.277 56.1105 268.351 56.2963 268.712 56.6681C268.861 56.8206 268.978 56.9588 268.978 56.9826C268.978 57.0064 268.882 57.0779 268.76 57.1351C268.335 57.3543 267.708 57.8118 267.544 58.0358C267.39 58.2407 267.379 58.2836 267.4 58.5409C267.416 58.7173 267.469 58.8698 267.533 58.946C267.623 59.0509 267.677 59.0699 267.921 59.0699H268.208L268.245 59.3749C268.383 60.4948 269.084 60.8713 270.019 60.3328C270.471 60.0755 271.804 58.8793 272.431 58.174C272.782 57.7784 272.925 57.6593 273.069 57.6212C273.462 57.5163 276.777 56.811 277.122 56.7538C277.324 56.7252 277.584 56.7157 277.707 56.73C278.105 56.7872 279.045 57.0064 279.109 57.0636C279.157 57.1017 279.157 57.2256 279.093 57.5926C279.051 57.8547 279.003 58.4218 278.982 58.8555C278.95 59.699 278.987 59.9373 279.189 60.166C279.29 60.2852 279.327 60.2947 279.587 60.2756C279.768 60.2613 279.927 60.2137 280.028 60.1517C280.241 60.0088 280.272 60.0183 280.4 60.2375C280.623 60.6283 281.117 61 281.415 61C281.643 61 282.35 60.5663 282.281 60.4663C282.265 60.4472 282.196 59.7657 282.127 58.9603C282.052 58.1549 281.972 57.3162 281.941 57.097C281.893 56.7777 281.893 56.6823 281.951 56.6347C282.057 56.5394 283.03 56.1629 283.651 55.977C283.954 55.8865 284.512 55.7531 284.889 55.6816C285.272 55.6101 285.675 55.5243 285.787 55.4862C286.706 55.2002 286.817 54.3567 286.079 53.2749C285.952 53.0891 285.813 52.8889 285.782 52.8317C285.744 52.7745 285.712 52.5648 285.712 52.3504C285.712 51.9787 285.585 49.6721 285.527 49.0145C285.319 46.5697 285.197 45.5022 285.017 44.5634C284.841 43.615 284.719 43.3291 284.39 43.0384C284.225 42.9002 284.167 42.7953 284.071 42.476C283.784 41.5134 283.561 39.4594 283.423 36.5571C283.38 35.6659 283.348 35.2799 283.301 35.237C283.242 35.1894 283.253 35.075 283.354 34.6366C283.492 34.0361 283.513 33.7216 283.417 33.4499C283.364 33.2831 283.37 33.2498 283.471 33.1545C283.731 32.9066 283.906 31.7581 283.906 30.2903V29.5135L284.071 29.3277C284.4 28.9607 285.096 27.9933 285.171 27.8074C285.404 27.1974 285.712 23.6709 285.712 21.5645C285.712 20.6256 285.686 20.5827 284.475 19.7392C284.135 19.4962 283.816 19.3008 283.768 19.3008C283.726 19.3008 283.423 19.4295 283.104 19.5915C282.78 19.7488 282.482 19.8679 282.44 19.8536C282.355 19.825 282.328 19.7678 282.073 19.1197C281.877 18.6288 281.808 18.5335 281.532 18.4191C281.303 18.3191 281.282 18.2666 281.33 17.9426C281.362 17.7091 281.377 17.6805 281.484 17.6805C281.553 17.6805 281.632 17.6519 281.67 17.6185C281.739 17.5375 281.903 16.9799 281.866 16.9275C281.85 16.9084 281.861 16.6034 281.893 16.2556C281.946 15.5788 281.925 15.4835 281.717 15.5026C281.617 15.5121 281.595 15.4645 281.51 14.9879C281.362 14.2063 281 13.0674 280.836 12.8481C280.607 12.5479 280.458 12.5193 279.444 12.5479C278.53 12.5765 277.329 12.729 277.127 12.8434C277.069 12.8767 276.942 13.0388 276.846 13.196C276.681 13.4772 276.671 13.5201 276.623 14.2874C276.591 14.7258 276.586 15.1833 276.607 15.312C276.633 15.5026 276.623 15.5502 276.532 15.6217C276.437 15.6932 276.432 15.7313 276.474 16.0363C276.501 16.2174 276.58 16.5606 276.649 16.7988C276.724 17.0324 276.793 17.3135 276.814 17.4184C276.888 17.8663 277.223 18.6574 277.505 19.0482C277.632 19.2245 277.717 19.3913 277.696 19.4104C277.669 19.4342 277.34 19.4438 276.963 19.4342L276.283 19.4199L275.555 19.053C274.732 18.6288 274.477 18.4525 274.057 18.0045L273.754 17.6852L273.924 17.3374C274.184 16.7988 274.556 16.1412 274.662 16.0363C275.002 15.6884 275.693 13.8966 275.677 13.4057C275.672 13.1722 275.682 13.1531 275.831 13.0816C275.916 13.0435 276.028 12.9577 276.07 12.8958C276.177 12.7528 276.123 12.6384 275.837 12.3239C275.714 12.2 275.619 12.0713 275.619 12.0475C275.619 11.9379 275.847 11.2231 276.038 10.7179C276.761 8.84024 278.206 6.32876 281.032 2.05399C282.111 0.428915 282.259 0.185868 282.259 0.0714927C282.259 -0.0285854 282.201 -0.0190542 281.601 0.195399Z" fill="#242424"/>
</g>
<defs>
<clipPath id="clip0_103_5">
<rect width="34" height="61" fill="white" transform="translate(260)"/>
</clipPath>
</defs>
</svg>
